<?xml version="1.0" standalone="no"?>
<!DOCTYPE svg PUBLIC "-//W3C//DTD SVG 20010904//EN"
 "http://www.w3.org/TR/2001/REC-SVG-20010904/DTD/svg10.dtd">
<svg version="1.0" xmlns="http://www.w3.org/2000/svg"
 width="640.000000pt" height="640.000000pt" viewBox="0 0 640.000000 640.000000"
 preserveAspectRatio="xMidYMid meet">
<metadata>
Created by potrace 1.14, written by Peter Selinger 2001-2017
</metadata>
<g transform="translate(0.000000,640.000000) scale(0.100000,-0.100000)"
fill="#000000" stroke="none">
<path d="M3253 6290 c-28 -10 -71 -30 -95 -44 -38 -22 -48 -24 -85 -16 -56 13
-131 -2 -201 -41 -61 -33 -49 -33 -166 2 -37 11 -113 12 -120 0 -3 -4 -22 -11
-42 -14 -76 -13 -175 -98 -210 -182 -11 -28 -19 -35 -32 -30 -9 4 -48 10 -87
12 -55 4 -82 1 -126 -16 -49 -19 -129 -81 -129 -102 0 -4 -35 -5 -77 -2 -76 5
-136 -6 -195 -38 -38 -21 -100 -83 -120 -122 l-20 -39 -58 6 c-170 19 -372
-75 -469 -218 -29 -44 -71 -139 -71 -163 0 -7 -26 -39 -58 -71 -94 -93 -124
-190 -99 -318 l8 -41 -63 -31 c-80 -39 -153 -115 -184 -190 -23 -57 -24 -77
-11 -237 2 -27 -1 -30 -42 -37 -72 -12 -164 -66 -231 -133 -66 -66 -78 -82
-111 -160 -11 -27 -26 -61 -32 -74 -7 -14 -11 -65 -10 -120 1 -110 27 -194 87
-284 l36 -54 -29 -59 c-32 -66 -54 -148 -47 -181 3 -11 8 -43 12 -70 9 -62 45
-134 95 -188 21 -23 39 -46 39 -50 0 -4 -8 -19 -19 -33 -10 -15 -22 -38 -26
-51 -4 -13 -28 -50 -54 -81 -52 -65 -71 -116 -71 -190 0 -32 -7 -63 -21 -86
-18 -33 -20 -51 -17 -144 3 -102 5 -110 45 -192 32 -64 58 -100 101 -140 54
-49 170 -118 200 -118 16 0 15 -8 -3 -60 -24 -69 -19 -177 12 -262 22 -58 39
-84 83 -128 31 -30 63 -60 72 -66 58 -44 173 -77 253 -72 l60 3 -3 -52 c-5
-66 23 -130 72 -169 23 -18 36 -38 36 -52 0 -13 11 -47 25 -75 43 -92 115
-142 218 -153 62 -6 64 -7 77 -43 15 -45 65 -99 107 -117 37 -16 139 -19 148
-4 11 18 35 11 77 -22 35 -29 48 -33 97 -33 39 1 68 7 92 21 l35 21 99 -94
c107 -101 291 -232 413 -294 41 -22 78 -39 83 -39 4 0 36 -13 71 -29 102 -47
190 -72 353 -101 39 -7 83 -16 99 -21 16 -5 126 -9 245 -9 192 0 230 3 336 25
66 14 134 28 150 31 66 13 143 37 195 61 30 14 64 29 75 33 145 56 390 218
524 346 l96 92 29 -25 c26 -22 73 -39 104 -36 6 0 21 1 31 2 11 0 33 13 50 27
25 21 43 27 96 29 66 3 130 30 166 71 32 36 59 95 59 128 0 24 10 46 35 76 19
23 35 53 35 66 0 13 1 24 3 24 1 1 20 3 42 6 57 9 181 71 212 108 34 40 53 87
53 129 0 25 7 38 30 55 36 27 70 90 70 131 0 29 2 31 43 29 79 -2 146 45 184
129 28 65 29 121 3 173 -32 62 -29 66 49 74 81 7 117 19 149 48 21 20 22 29
22 157 0 75 -4 151 -9 169 -9 29 -6 36 34 83 54 64 71 119 55 180 -7 24 -17
50 -22 57 -8 9 -5 19 10 35 11 12 25 35 31 50 14 36 14 114 1 122 -16 10 -12
34 10 65 12 17 22 49 24 79 2 28 11 62 20 76 11 17 16 47 16 106 l0 81 -40 40
c-39 39 -40 42 -40 109 0 81 -15 123 -58 163 l-30 29 40 51 c23 28 52 76 65
106 21 47 24 67 21 135 -4 95 -34 167 -96 232 -39 41 -40 45 -30 80 18 65 4
184 -28 243 -42 78 -167 180 -220 180 -7 0 -14 24 -18 63 -4 35 -18 81 -31
107 -23 41 -39 75 -69 139 -22 47 -86 108 -136 130 -45 19 -50 25 -50 54 -1
123 -85 252 -204 310 -57 28 -120 45 -149 41 -11 -1 -19 6 -23 24 -25 115
-118 192 -231 192 -33 0 -45 4 -49 18 -49 155 -186 250 -348 239 -39 -3 -87
-8 -107 -12 -23 -4 -39 -3 -43 4 -4 6 -24 11 -44 11 -46 0 -50 3 -91 67 -35
56 -132 152 -178 176 -75 38 -111 56 -148 71 -48 20 -169 35 -248 30 -48 -3
-65 1 -97 21 -105 66 -239 84 -347 45z"/>
</g>
</svg>
